<?xml version="1.0" standalone="no"?><!DOCTYPE svg PUBLIC "-//W3C//DTD SVG 1.1//EN" "http://www.w3.org/Graphics/SVG/1.1/DTD/svg11.dtd"><svg t="1734946787741" class="icon" viewBox="0 0 1024 1024" version="1.1" xmlns="http://www.w3.org/2000/svg" p-id="7276" xmlns:xlink="http://www.w3.org/1999/xlink" width="200" height="200"><path d="M582.997333 296.789333L343.466667 362.496l48.64 180.224 239.573333-65.706667 48.853333 180.053334-239.573333 63.573333 46.634667 180.224-239.573334 63.573333L188.586667 748.373333c36.096-42.453333 50.944-101.802667 36.096-159.061333-16.981333-57.258667-59.392-101.76-110.250667-120.832L55.04 245.888 536.32 118.613333z m303.189334-8.448L807.765333 2.133333 0 216.234667l78.421333 288.341333a129.962667 129.962667 0 0 1 101.76 95.402667c14.848 50.901333-4.266667 101.76-40.277333 135.68l76.288 286.208L1024 805.632l-76.373333-286.208c-48.725333-8.533333-89.002667-44.501333-103.850667-95.402667-12.714667-50.901333 4.266667-103.893333 42.410667-135.68z" fill="#F94612" p-id="7277"></path></svg>